<?xml version="1.0" encoding="UTF-8" standalone="no"?><!DOCTYPE svg PUBLIC "-//W3C//DTD SVG 1.1//EN" "http://www.w3.org/Graphics/SVG/1.1/DTD/svg11.dtd"><svg width="100%" height="100%" viewBox="0 0 300 300" version="1.1" xmlns="http://www.w3.org/2000/svg" xmlns:xlink="http://www.w3.org/1999/xlink" xml:space="preserve" xmlns:serif="http://www.serif.com/" style="fill-rule:evenodd;clip-rule:evenodd;stroke-linejoin:round;stroke-miterlimit:2;"><rect id="Artboard7" x="0" y="0" width="300" height="300" style="fill:none;"/><clipPath id="_clip1"><rect x="0" y="0" width="300" height="300"/></clipPath><g clip-path="url(#_clip1)"><g><path d="M232.674778,276.358584c-4.199263,2.737287 -8.722263,5.451671 -13.666107,8.294287c-0.010492,0.006033 -0.023542,0.005378 -0.033377,-0.001676c-0.009835,-0.007053 -0.014641,-0.019203 -0.012292,-0.031076c3.11189,-15.729527 5.566094,-23.218775 7.237995,-48.244692c2.245237,-33.607917 1.627481,-66.249152 0.324206,-87.332202c4.857769,33.726279 9.19311,75.170606 9.055152,102.207293c-0.059098,11.581961 -0.93826,20.518929 -2.950665,25.069721c-0.005527,0.0125 -0.002178,0.027146 0.008234,0.036c0.010411,0.008854 0.025406,0.009808 0.036855,0.002345Z" style="fill:#fff;fill-opacity:0.4;"/><path d="M258.032653,254.884498c-7.511642,8.565514 -15.552239,15.082288 -25.357875,21.474086c0.005007,-0.003263 0.008958,-0.00791 0.011375,-0.013376c2.014405,-4.555317 2.896781,-13.500897 2.955938,-25.094375c0.137971,-27.039215 -4.19755,-68.487502 -9.055778,-102.216866c-0.002361,-0.016391 -0.017236,-0.028 -0.033709,-0.026307c-0.016474,0.001693 -0.028677,0.016083 -0.027655,0.032612c0.000061,0.000986 0.000191,0.001967 0.000252,0.002953c-3.294439,-18.86276 -8.183374,-49.47883 -40.454334,-66.654328l0.001586,0.00064c26.148932,10.221181 54.137905,43.671275 56.063635,113.842588l0.000059,0.001241c1.889732,27.872057 2.038837,37.477959 15.874329,58.616949c0.00739,0.011395 0.014782,0.022789 0.022177,0.034182Z" style="fill:#fff;fill-opacity:0.7;"/><path d="M75.253704,280.807142l0.002131,0.001438c0.013521,0.009542 0.017112,0.028048 0.008142,0.041954c-0.00897,0.013906 -0.02731,0.018266 -0.041578,0.009883l-0.002188,-0.001348c-45.779864,-26.898267 -75.740892,-77.526496 -75.213355,-130.191114c0.104103,-10.392679 1.32648,-20.63044 3.555502,-30.576627c0.003352,-0.014956 0.01717,-0.025188 0.032454,-0.02403c0.041128,0.003116 0.083072,-0.001023 0.123899,-0.012869c2.26205,-0.655705 3.73013,-1.072004 7.25504,-1.880239c7.950852,-2.124447 44.955241,-5.375361 79.593545,0.155126l0.002321,0.000462c25.293219,6.055735 37.672592,17.127776 45.82782,29.209596c0.008448,0.012515 0.006602,0.029304 -0.004362,0.039686c-38.938758,36.869607 -61.862546,85.117736 -62.311633,132.470201c0.405963,0.239945 0.796499,0.492784 1.172263,0.757882Z" style="fill:#fff;"/><path d="M186.069177,82.388062c-9.695983,-4.4223 -18.913738,-6.647047 -27.619105,-6.515998c-15.122266,0.296785 -23.472752,3.761503 -39.400012,12.146587l-0.001152,0.000576c-19.146496,9.080698 -21.62605,9.754591 -33.202588,10.226848l-0.003017,-0.000024c-4.694621,-0.267932 -8.65183,-1.122879 -14.963827,-1.185329c-7.851013,-0.010839 -15.702023,0.907952 -23.553036,2.518302l-0.001391,0.000252c-18.35056,2.895419 -35.164733,11.919629 -43.449877,19.393856c-0.010014,0.009034 -0.024733,0.010521 -0.036352,0.003673c-0.011619,-0.006848 -0.017447,-0.020446 -0.014394,-0.033582c15.33891,-65.996932 75.011809,-118.864287 146.179202,-118.404473c82.536581,0.533271 149.595292,66.870128 149.994581,149.388502l-0.029082,0.029229l0.000006,0.00179l0.030869,-0.030869l0,149.505955c-0,0.011636 -0.006543,0.022283 -0.016923,0.027539c-0.010381,0.005257 -0.022835,0.00423 -0.032214,-0.002656c-10.324407,-7.579915 -29.02724,-24.710726 -41.918209,-44.573742c0.008969,-0.010227 0.017936,-0.020457 0.026903,-0.030689c0.009133,-0.010423 0.010202,-0.025654 0.002613,-0.03725c-13.828316,-21.12801 -13.97566,-30.729466 -15.864383,-58.58675c-1.926902,-70.20816 -29.940113,-103.671193 -56.102857,-113.897773c-0.015229,-0.005953 -0.032458,0.001002 -0.039286,0.015859c-0.006829,0.014857 -0.000901,0.032487 0.013534,0.040169Z" style="fill:#fff;"/></g></g></svg>